<mxfile host="app.diagrams.net" agent="Mozilla/5.0 (X11; Linux x86_64; rv:130.0) Gecko/20100101 Firefox/130.0" version="24.7.11">
  <diagram name="Page-1" id="qikpzRSZvM3TFRXRG36K">
    <mxGraphModel dx="1298" dy="737" grid="1" gridSize="10" guides="1" tooltips="1" connect="1" arrows="1" fold="1" page="1" pageScale="1" pageWidth="690" pageHeight="980" math="0" shadow="0">
      <root>
        <mxCell id="0" />
        <mxCell id="1" parent="0" />
        <mxCell id="Vq-DnxmtAZkRyfQrdl7P-14" value="" style="shape=flexArrow;endArrow=classic;html=1;rounded=0;entryX=1;entryY=0.5;entryDx=0;entryDy=0;exitX=0;exitY=0.25;exitDx=0;exitDy=0;fillColor=#717878;shadow=1;" parent="1" source="Vq-DnxmtAZkRyfQrdl7P-10" target="Vq-DnxmtAZkRyfQrdl7P-13" edge="1">
          <mxGeometry width="50" height="50" relative="1" as="geometry">
            <mxPoint x="550" y="230" as="sourcePoint" />
            <mxPoint x="490" y="230" as="targetPoint" />
          </mxGeometry>
        </mxCell>
        <mxCell id="LwXu_KzBqzg4NXGpR5ZD-3" value="" style="shape=flexArrow;endArrow=classic;html=1;rounded=0;exitX=1;exitY=0.5;exitDx=0;exitDy=0;fillColor=#717878;entryX=0;entryY=0.5;entryDx=0;entryDy=0;" edge="1" parent="1" source="T-nSwSUUy6fj4ilnEvnR-10" target="LwXu_KzBqzg4NXGpR5ZD-2">
          <mxGeometry width="50" height="50" relative="1" as="geometry">
            <mxPoint x="475" y="464.5" as="sourcePoint" />
            <mxPoint x="555" y="464.5" as="targetPoint" />
          </mxGeometry>
        </mxCell>
        <mxCell id="LwXu_KzBqzg4NXGpR5ZD-7" value="" style="shape=flexArrow;endArrow=classic;html=1;rounded=0;fillColor=#717878;entryX=0;entryY=0.5;entryDx=0;entryDy=0;" edge="1" parent="1">
          <mxGeometry width="50" height="50" relative="1" as="geometry">
            <mxPoint x="614" y="530" as="sourcePoint" />
            <mxPoint x="670" y="530" as="targetPoint" />
          </mxGeometry>
        </mxCell>
        <mxCell id="LwXu_KzBqzg4NXGpR5ZD-11" value="" style="endArrow=none;dashed=1;html=1;dashPattern=1 3;strokeWidth=2;rounded=0;" edge="1" parent="1" target="Vq-DnxmtAZkRyfQrdl7P-13">
          <mxGeometry width="50" height="50" relative="1" as="geometry">
            <mxPoint x="420" y="340" as="sourcePoint" />
            <mxPoint x="430" y="160" as="targetPoint" />
          </mxGeometry>
        </mxCell>
        <mxCell id="Vq-DnxmtAZkRyfQrdl7P-1" value="&lt;font style=&quot;font-size: 18px;&quot;&gt;&lt;b&gt;VGA Driver&lt;/b&gt;&lt;/font&gt;" style="rounded=1;whiteSpace=wrap;html=1;fillColor=#0DB6FF;shadow=1;" parent="1" vertex="1">
          <mxGeometry x="110" y="200" width="200" height="80" as="geometry" />
        </mxCell>
        <mxCell id="Vq-DnxmtAZkRyfQrdl7P-7" value="" style="endArrow=none;dashed=1;html=1;dashPattern=1 3;strokeWidth=2;rounded=0;" parent="1" edge="1" source="Vq-DnxmtAZkRyfQrdl7P-13">
          <mxGeometry width="50" height="50" relative="1" as="geometry">
            <mxPoint x="430" y="340" as="sourcePoint" />
            <mxPoint x="420" y="160" as="targetPoint" />
          </mxGeometry>
        </mxCell>
        <mxCell id="Vq-DnxmtAZkRyfQrdl7P-8" value="" style="endArrow=none;dashed=1;html=1;dashPattern=1 3;strokeWidth=2;rounded=0;" parent="1" edge="1">
          <mxGeometry width="50" height="50" relative="1" as="geometry">
            <mxPoint x="80" y="340" as="sourcePoint" />
            <mxPoint x="420" y="340" as="targetPoint" />
          </mxGeometry>
        </mxCell>
        <mxCell id="Vq-DnxmtAZkRyfQrdl7P-9" value="&lt;font style=&quot;font-size: 14px;&quot;&gt;&lt;b&gt;Pixel Clock Domain&lt;/b&gt; ~25 MHz&lt;/font&gt;" style="text;html=1;align=center;verticalAlign=middle;whiteSpace=wrap;rounded=0;" parent="1" vertex="1">
          <mxGeometry x="141.25" y="300" width="137.5" height="30" as="geometry" />
        </mxCell>
        <mxCell id="Vq-DnxmtAZkRyfQrdl7P-10" value="&lt;font style=&quot;font-size: 14px;&quot;&gt;&lt;b&gt;Framebuffer&lt;/b&gt;&lt;/font&gt;" style="rounded=1;whiteSpace=wrap;html=1;fillColor=#0DB6FF;shadow=1;" parent="1" vertex="1">
          <mxGeometry x="530" y="200" width="100" height="80" as="geometry" />
        </mxCell>
        <mxCell id="Vq-DnxmtAZkRyfQrdl7P-15" value="" style="shape=flexArrow;endArrow=classic;html=1;rounded=0;entryX=1;entryY=0.25;entryDx=0;entryDy=0;exitX=0;exitY=0.5;exitDx=0;exitDy=0;fillColor=#717878;shadow=1;" parent="1" source="Vq-DnxmtAZkRyfQrdl7P-13" target="Vq-DnxmtAZkRyfQrdl7P-1" edge="1">
          <mxGeometry width="50" height="50" relative="1" as="geometry">
            <mxPoint x="380" y="500" as="sourcePoint" />
            <mxPoint x="430" y="450" as="targetPoint" />
          </mxGeometry>
        </mxCell>
        <mxCell id="Vq-DnxmtAZkRyfQrdl7P-17" value="&lt;div&gt;&lt;b&gt;CDC&lt;/b&gt;&lt;/div&gt;&lt;div&gt;(Frame &amp;amp; Line active)&lt;br&gt;&lt;/div&gt;" style="rounded=1;whiteSpace=wrap;html=1;fillColor=#0DB6FF;shadow=1;" parent="1" vertex="1">
          <mxGeometry x="360" y="260" width="120" height="40" as="geometry" />
        </mxCell>
        <mxCell id="Vq-DnxmtAZkRyfQrdl7P-18" value="" style="endArrow=classic;html=1;rounded=0;exitX=1;exitY=0.75;exitDx=0;exitDy=0;entryX=0;entryY=0.5;entryDx=0;entryDy=0;" parent="1" source="Vq-DnxmtAZkRyfQrdl7P-1" target="Vq-DnxmtAZkRyfQrdl7P-17" edge="1">
          <mxGeometry width="50" height="50" relative="1" as="geometry">
            <mxPoint x="380" y="500" as="sourcePoint" />
            <mxPoint x="430" y="450" as="targetPoint" />
          </mxGeometry>
        </mxCell>
        <mxCell id="Vq-DnxmtAZkRyfQrdl7P-19" value="" style="endArrow=classic;html=1;rounded=0;entryX=0;entryY=0.75;entryDx=0;entryDy=0;exitX=1;exitY=0.5;exitDx=0;exitDy=0;" parent="1" source="Vq-DnxmtAZkRyfQrdl7P-17" target="Vq-DnxmtAZkRyfQrdl7P-10" edge="1">
          <mxGeometry width="50" height="50" relative="1" as="geometry">
            <mxPoint x="380" y="500" as="sourcePoint" />
            <mxPoint x="430" y="450" as="targetPoint" />
          </mxGeometry>
        </mxCell>
        <mxCell id="Vq-DnxmtAZkRyfQrdl7P-21" value="" style="endArrow=none;html=1;rounded=0;" parent="1" edge="1">
          <mxGeometry width="50" height="50" relative="1" as="geometry">
            <mxPoint x="80" y="640" as="sourcePoint" />
            <mxPoint x="80" y="160" as="targetPoint" />
          </mxGeometry>
        </mxCell>
        <mxCell id="Vq-DnxmtAZkRyfQrdl7P-22" value="" style="endArrow=none;html=1;rounded=0;" parent="1" edge="1">
          <mxGeometry width="50" height="50" relative="1" as="geometry">
            <mxPoint x="920" y="160" as="sourcePoint" />
            <mxPoint x="80" y="160" as="targetPoint" />
          </mxGeometry>
        </mxCell>
        <mxCell id="Vq-DnxmtAZkRyfQrdl7P-23" value="" style="shape=flexArrow;endArrow=classic;html=1;rounded=0;exitX=0;exitY=0.5;exitDx=0;exitDy=0;fillColor=#717878;shadow=1;" parent="1" source="Vq-DnxmtAZkRyfQrdl7P-1" edge="1">
          <mxGeometry width="50" height="50" relative="1" as="geometry">
            <mxPoint x="290" y="300" as="sourcePoint" />
            <mxPoint x="40" y="240" as="targetPoint" />
          </mxGeometry>
        </mxCell>
        <mxCell id="Vq-DnxmtAZkRyfQrdl7P-25" value="" style="endArrow=none;html=1;rounded=0;" parent="1" edge="1">
          <mxGeometry width="50" height="50" relative="1" as="geometry">
            <mxPoint x="920" y="640" as="sourcePoint" />
            <mxPoint x="920" y="160" as="targetPoint" />
          </mxGeometry>
        </mxCell>
        <mxCell id="T-nSwSUUy6fj4ilnEvnR-1" value="&lt;font style=&quot;font-size: 14px;&quot;&gt;&lt;b&gt;System Clock Domain&lt;/b&gt; ~100 MHz&lt;/font&gt;" style="text;html=1;align=center;verticalAlign=middle;whiteSpace=wrap;rounded=0;" parent="1" vertex="1">
          <mxGeometry x="750" y="610" width="150" height="30" as="geometry" />
        </mxCell>
        <mxCell id="T-nSwSUUy6fj4ilnEvnR-2" value="&lt;font style=&quot;font-size: 18px;&quot;&gt;&lt;b&gt;SPI Driver&lt;br&gt;&lt;/b&gt;&lt;/font&gt;" style="rounded=1;whiteSpace=wrap;html=1;fillColor=#0DB6FF;shadow=1;" parent="1" vertex="1">
          <mxGeometry x="110" y="370" width="180" height="80" as="geometry" />
        </mxCell>
        <mxCell id="T-nSwSUUy6fj4ilnEvnR-3" value="" style="shape=flexArrow;endArrow=classic;html=1;rounded=0;fillColor=#717878;shadow=1;entryX=0;entryY=0.5;entryDx=0;entryDy=0;" parent="1" target="T-nSwSUUy6fj4ilnEvnR-2" edge="1">
          <mxGeometry width="50" height="50" relative="1" as="geometry">
            <mxPoint x="40" y="410" as="sourcePoint" />
            <mxPoint x="50" y="480" as="targetPoint" />
          </mxGeometry>
        </mxCell>
        <mxCell id="T-nSwSUUy6fj4ilnEvnR-5" value="" style="endArrow=none;html=1;rounded=0;" parent="1" edge="1">
          <mxGeometry width="50" height="50" relative="1" as="geometry">
            <mxPoint x="80" y="640" as="sourcePoint" />
            <mxPoint x="920" y="640" as="targetPoint" />
          </mxGeometry>
        </mxCell>
        <mxCell id="T-nSwSUUy6fj4ilnEvnR-6" value="&lt;font style=&quot;font-size: 18px;&quot;&gt;&lt;b&gt;Vertex &amp;amp; Vertex-Attribute registers&lt;br&gt;&lt;/b&gt;&lt;/font&gt;" style="rounded=1;whiteSpace=wrap;html=1;fillColor=#0DB6FF;shadow=1;" parent="1" vertex="1">
          <mxGeometry x="110" y="480" width="180" height="80" as="geometry" />
        </mxCell>
        <mxCell id="T-nSwSUUy6fj4ilnEvnR-10" value="&lt;div align=&quot;center&quot;&gt;&lt;font style=&quot;font-size: 18px;&quot;&gt;&lt;b&gt;Vertex&lt;/b&gt;&lt;/font&gt;&lt;/div&gt;&lt;div align=&quot;center&quot;&gt;&lt;font style=&quot;font-size: 18px;&quot;&gt;&lt;b&gt;Shader&lt;/b&gt;&lt;/font&gt;&lt;/div&gt;&lt;div align=&quot;center&quot;&gt;&lt;font style=&quot;font-size: 18px;&quot;&gt;&lt;b&gt;Unit&lt;/b&gt;&lt;/font&gt;&lt;/div&gt;" style="rounded=1;whiteSpace=wrap;html=1;fillColor=#0DB6FF;shadow=1;align=center;" parent="1" vertex="1">
          <mxGeometry x="390" y="370" width="100" height="190" as="geometry" />
        </mxCell>
        <mxCell id="T-nSwSUUy6fj4ilnEvnR-11" value="" style="shape=flexArrow;endArrow=classic;html=1;rounded=0;exitX=1;exitY=0.5;exitDx=0;exitDy=0;fillColor=#717878;" parent="1" source="T-nSwSUUy6fj4ilnEvnR-2" edge="1">
          <mxGeometry width="50" height="50" relative="1" as="geometry">
            <mxPoint x="490" y="430" as="sourcePoint" />
            <mxPoint x="390" y="410" as="targetPoint" />
          </mxGeometry>
        </mxCell>
        <mxCell id="T-nSwSUUy6fj4ilnEvnR-16" value="" style="shape=flexArrow;endArrow=classic;html=1;rounded=0;exitX=1;exitY=0.5;exitDx=0;exitDy=0;fillColor=#717878;" parent="1" edge="1" source="T-nSwSUUy6fj4ilnEvnR-6">
          <mxGeometry width="50" height="50" relative="1" as="geometry">
            <mxPoint x="310" y="519.5" as="sourcePoint" />
            <mxPoint x="390" y="519.5" as="targetPoint" />
          </mxGeometry>
        </mxCell>
        <mxCell id="T-nSwSUUy6fj4ilnEvnR-17" value="&lt;font style=&quot;font-size: 12px;&quot;&gt;&lt;b&gt;Positions&lt;/b&gt;&lt;/font&gt;" style="text;html=1;align=center;verticalAlign=middle;whiteSpace=wrap;rounded=0;" parent="1" vertex="1">
          <mxGeometry x="310" y="380" width="60" height="30" as="geometry" />
        </mxCell>
        <mxCell id="T-nSwSUUy6fj4ilnEvnR-18" value="&lt;font style=&quot;font-size: 12px;&quot;&gt;&lt;b&gt;Rotations&lt;/b&gt;&lt;/font&gt;" style="text;html=1;align=center;verticalAlign=middle;whiteSpace=wrap;rounded=0;" parent="1" vertex="1">
          <mxGeometry x="310" y="410" width="60" height="30" as="geometry" />
        </mxCell>
        <mxCell id="LwXu_KzBqzg4NXGpR5ZD-2" value="&lt;div align=&quot;center&quot;&gt;&lt;font style=&quot;font-size: 18px;&quot;&gt;&lt;b&gt;Vertex&lt;/b&gt;&lt;/font&gt;&lt;/div&gt;&lt;div align=&quot;center&quot;&gt;&lt;font style=&quot;font-size: 18px;&quot;&gt;&lt;b&gt;Post&lt;/b&gt;&lt;/font&gt;&lt;/div&gt;&lt;div align=&quot;center&quot;&gt;&lt;font style=&quot;font-size: 18px;&quot;&gt;&lt;b&gt;Process.&lt;br&gt;&lt;/b&gt;&lt;/font&gt;&lt;/div&gt;" style="rounded=1;whiteSpace=wrap;html=1;fillColor=#0DB6FF;shadow=1;align=center;" vertex="1" parent="1">
          <mxGeometry x="530" y="370" width="100" height="190" as="geometry" />
        </mxCell>
        <mxCell id="LwXu_KzBqzg4NXGpR5ZD-4" value="&lt;div align=&quot;center&quot;&gt;&lt;font style=&quot;font-size: 18px;&quot;&gt;&lt;b&gt;Primitive&lt;/b&gt;&lt;/font&gt;&lt;/div&gt;&lt;div align=&quot;center&quot;&gt;&lt;font style=&quot;font-size: 18px;&quot;&gt;&lt;b&gt;Assembler&lt;br&gt;&lt;/b&gt;&lt;/font&gt;&lt;/div&gt;" style="rounded=1;whiteSpace=wrap;html=1;fillColor=#0DB6FF;shadow=1;align=center;" vertex="1" parent="1">
          <mxGeometry x="670" y="500" width="230" height="58" as="geometry" />
        </mxCell>
        <mxCell id="LwXu_KzBqzg4NXGpR5ZD-5" value="" style="shape=flexArrow;endArrow=classic;html=1;rounded=0;exitX=0.5;exitY=1;exitDx=0;exitDy=0;entryX=0.5;entryY=1;entryDx=0;entryDy=0;fillColor=#717878;" edge="1" parent="1" source="T-nSwSUUy6fj4ilnEvnR-6" target="LwXu_KzBqzg4NXGpR5ZD-4">
          <mxGeometry width="50" height="50" relative="1" as="geometry">
            <mxPoint x="210" y="620" as="sourcePoint" />
            <mxPoint x="260" y="570" as="targetPoint" />
            <Array as="points">
              <mxPoint x="200" y="590" />
              <mxPoint x="785" y="590" />
            </Array>
          </mxGeometry>
        </mxCell>
        <mxCell id="LwXu_KzBqzg4NXGpR5ZD-8" value="&lt;b&gt;Vertex Data&lt;/b&gt;" style="text;html=1;align=center;verticalAlign=middle;whiteSpace=wrap;rounded=0;" vertex="1" parent="1">
          <mxGeometry x="300" y="520" width="70" height="30" as="geometry" />
        </mxCell>
        <mxCell id="LwXu_KzBqzg4NXGpR5ZD-9" value="&lt;b&gt;Index Data&lt;br&gt;&lt;/b&gt;" style="text;html=1;align=center;verticalAlign=middle;whiteSpace=wrap;rounded=0;" vertex="1" parent="1">
          <mxGeometry x="450" y="590" width="70" height="30" as="geometry" />
        </mxCell>
        <mxCell id="LwXu_KzBqzg4NXGpR5ZD-10" value="&lt;div align=&quot;center&quot;&gt;&lt;font style=&quot;font-size: 18px;&quot;&gt;&lt;b&gt;Rasterizer +&lt;/b&gt;&lt;/font&gt;&lt;/div&gt;&lt;div align=&quot;center&quot;&gt;&lt;font style=&quot;font-size: 18px;&quot;&gt;&lt;b&gt;Fragment Shader&lt;br&gt;&lt;/b&gt;&lt;/font&gt;&lt;/div&gt;" style="rounded=1;whiteSpace=wrap;html=1;fillColor=#0DB6FF;shadow=1;align=center;" vertex="1" parent="1">
          <mxGeometry x="670" y="365" width="230" height="95" as="geometry" />
        </mxCell>
        <mxCell id="Vq-DnxmtAZkRyfQrdl7P-13" value="&lt;b&gt;Linebuffer&lt;/b&gt;" style="rounded=1;whiteSpace=wrap;html=1;fillColor=#0DB6FF;shadow=1;" parent="1" vertex="1">
          <mxGeometry x="360" y="190" width="120" height="60" as="geometry" />
        </mxCell>
        <mxCell id="LwXu_KzBqzg4NXGpR5ZD-12" value="" style="shape=flexArrow;endArrow=classic;html=1;rounded=0;entryX=0.5;entryY=1;entryDx=0;entryDy=0;exitX=0.5;exitY=0;exitDx=0;exitDy=0;fillColor=#717878;" edge="1" parent="1" source="LwXu_KzBqzg4NXGpR5ZD-4" target="LwXu_KzBqzg4NXGpR5ZD-10">
          <mxGeometry width="50" height="50" relative="1" as="geometry">
            <mxPoint x="540" y="500" as="sourcePoint" />
            <mxPoint x="590" y="450" as="targetPoint" />
          </mxGeometry>
        </mxCell>
        <mxCell id="LwXu_KzBqzg4NXGpR5ZD-14" value="&lt;div&gt;&lt;b&gt;Quad&lt;/b&gt;&lt;/div&gt;&lt;div&gt;&lt;b&gt;Buffer&lt;br&gt;&lt;/b&gt;&lt;/div&gt;" style="rounded=1;whiteSpace=wrap;html=1;fillColor=#0DB6FF;shadow=1;" vertex="1" parent="1">
          <mxGeometry x="670" y="300" width="50" height="40" as="geometry" />
        </mxCell>
        <mxCell id="LwXu_KzBqzg4NXGpR5ZD-16" value="&lt;div&gt;&lt;b&gt;Quad&lt;/b&gt;&lt;/div&gt;&lt;div&gt;&lt;b&gt;Buffer&lt;br&gt;&lt;/b&gt;&lt;/div&gt;" style="rounded=1;whiteSpace=wrap;html=1;fillColor=#0DB6FF;shadow=1;" vertex="1" parent="1">
          <mxGeometry x="730" y="300" width="50" height="40" as="geometry" />
        </mxCell>
        <mxCell id="LwXu_KzBqzg4NXGpR5ZD-17" value="&lt;div&gt;&lt;b&gt;Quad&lt;/b&gt;&lt;/div&gt;&lt;div&gt;&lt;b&gt;Buffer&lt;br&gt;&lt;/b&gt;&lt;/div&gt;" style="rounded=1;whiteSpace=wrap;html=1;fillColor=#0DB6FF;shadow=1;" vertex="1" parent="1">
          <mxGeometry x="790" y="300" width="50" height="40" as="geometry" />
        </mxCell>
        <mxCell id="LwXu_KzBqzg4NXGpR5ZD-18" value="&lt;div&gt;&lt;b&gt;Quad&lt;/b&gt;&lt;/div&gt;&lt;div&gt;&lt;b&gt;Buffer&lt;br&gt;&lt;/b&gt;&lt;/div&gt;" style="rounded=1;whiteSpace=wrap;html=1;fillColor=#0DB6FF;shadow=1;" vertex="1" parent="1">
          <mxGeometry x="850" y="300" width="50" height="40" as="geometry" />
        </mxCell>
        <mxCell id="LwXu_KzBqzg4NXGpR5ZD-20" value="" style="endArrow=classic;html=1;rounded=0;entryX=0.5;entryY=1;entryDx=0;entryDy=0;exitX=0.109;exitY=0.004;exitDx=0;exitDy=0;exitPerimeter=0;" edge="1" parent="1" source="LwXu_KzBqzg4NXGpR5ZD-10" target="LwXu_KzBqzg4NXGpR5ZD-14">
          <mxGeometry width="50" height="50" relative="1" as="geometry">
            <mxPoint x="450" y="280" as="sourcePoint" />
            <mxPoint x="500" y="230" as="targetPoint" />
          </mxGeometry>
        </mxCell>
        <mxCell id="LwXu_KzBqzg4NXGpR5ZD-21" value="" style="endArrow=classic;html=1;rounded=0;entryX=0.5;entryY=1;entryDx=0;entryDy=0;exitX=0.37;exitY=0.011;exitDx=0;exitDy=0;exitPerimeter=0;" edge="1" parent="1" source="LwXu_KzBqzg4NXGpR5ZD-10" target="LwXu_KzBqzg4NXGpR5ZD-16">
          <mxGeometry width="50" height="50" relative="1" as="geometry">
            <mxPoint x="740" y="360" as="sourcePoint" />
            <mxPoint x="705" y="350" as="targetPoint" />
          </mxGeometry>
        </mxCell>
        <mxCell id="LwXu_KzBqzg4NXGpR5ZD-22" value="" style="endArrow=classic;html=1;rounded=0;entryX=0.5;entryY=1;entryDx=0;entryDy=0;exitX=0.37;exitY=0.011;exitDx=0;exitDy=0;exitPerimeter=0;" edge="1" parent="1">
          <mxGeometry width="50" height="50" relative="1" as="geometry">
            <mxPoint x="814.67" y="365" as="sourcePoint" />
            <mxPoint x="814.67" y="339" as="targetPoint" />
          </mxGeometry>
        </mxCell>
        <mxCell id="LwXu_KzBqzg4NXGpR5ZD-23" value="" style="endArrow=classic;html=1;rounded=0;entryX=0.5;entryY=1;entryDx=0;entryDy=0;exitX=0.37;exitY=0.011;exitDx=0;exitDy=0;exitPerimeter=0;" edge="1" parent="1">
          <mxGeometry width="50" height="50" relative="1" as="geometry">
            <mxPoint x="874.67" y="365" as="sourcePoint" />
            <mxPoint x="874.67" y="339" as="targetPoint" />
          </mxGeometry>
        </mxCell>
        <mxCell id="LwXu_KzBqzg4NXGpR5ZD-26" value="&lt;b&gt;Quad to Framebuffer Combiner&lt;/b&gt;" style="rounded=1;whiteSpace=wrap;html=1;fillColor=#0DB6FF;shadow=1;" vertex="1" parent="1">
          <mxGeometry x="670" y="200" width="230" height="80" as="geometry" />
        </mxCell>
        <mxCell id="LwXu_KzBqzg4NXGpR5ZD-28" value="" style="endArrow=classic;html=1;rounded=0;exitX=0.5;exitY=0;exitDx=0;exitDy=0;" edge="1" parent="1" source="LwXu_KzBqzg4NXGpR5ZD-14">
          <mxGeometry width="50" height="50" relative="1" as="geometry">
            <mxPoint x="450" y="440" as="sourcePoint" />
            <mxPoint x="695" y="280" as="targetPoint" />
          </mxGeometry>
        </mxCell>
        <mxCell id="LwXu_KzBqzg4NXGpR5ZD-29" value="" style="endArrow=classic;html=1;rounded=0;exitX=0.5;exitY=0;exitDx=0;exitDy=0;" edge="1" parent="1" source="LwXu_KzBqzg4NXGpR5ZD-16">
          <mxGeometry width="50" height="50" relative="1" as="geometry">
            <mxPoint x="705" y="310" as="sourcePoint" />
            <mxPoint x="755" y="280" as="targetPoint" />
          </mxGeometry>
        </mxCell>
        <mxCell id="LwXu_KzBqzg4NXGpR5ZD-30" value="" style="endArrow=classic;html=1;rounded=0;exitX=0.5;exitY=0;exitDx=0;exitDy=0;" edge="1" parent="1" source="LwXu_KzBqzg4NXGpR5ZD-17">
          <mxGeometry width="50" height="50" relative="1" as="geometry">
            <mxPoint x="715" y="320" as="sourcePoint" />
            <mxPoint x="815" y="280" as="targetPoint" />
          </mxGeometry>
        </mxCell>
        <mxCell id="LwXu_KzBqzg4NXGpR5ZD-31" value="" style="endArrow=classic;html=1;rounded=0;exitX=0.5;exitY=0;exitDx=0;exitDy=0;entryX=0.891;entryY=1.008;entryDx=0;entryDy=0;entryPerimeter=0;" edge="1" parent="1" source="LwXu_KzBqzg4NXGpR5ZD-18" target="LwXu_KzBqzg4NXGpR5ZD-26">
          <mxGeometry width="50" height="50" relative="1" as="geometry">
            <mxPoint x="825" y="310" as="sourcePoint" />
            <mxPoint x="825" y="290" as="targetPoint" />
          </mxGeometry>
        </mxCell>
        <mxCell id="LwXu_KzBqzg4NXGpR5ZD-32" value="" style="shape=flexArrow;endArrow=classic;html=1;rounded=0;exitX=0;exitY=0.5;exitDx=0;exitDy=0;fillColor=#717878;shadow=1;" edge="1" parent="1" source="LwXu_KzBqzg4NXGpR5ZD-26">
          <mxGeometry width="50" height="50" relative="1" as="geometry">
            <mxPoint x="540" y="230" as="sourcePoint" />
            <mxPoint x="630" y="240" as="targetPoint" />
          </mxGeometry>
        </mxCell>
      </root>
    </mxGraphModel>
  </diagram>
</mxfile>
